<?xml version="1.0" standalone="no"?>
<!DOCTYPE svg PUBLIC "-//W3C//DTD SVG 1.1//EN"
"http://www.w3.org/Graphics/SVG/1.1/DTD/svg11.dtd">

<svg width="434" height="333" view_box="0 0 434 333"
xmlns="http://www.w3.org/2000/svg"
xmlns:link="http://www.w3.org/1999/xlink">\n\n<desc>Généré par Mocodo 2.3.7 le Mon, 07 Dec 2020 09:29:04</desc>

<rect id="frame" x="0" y="0" width="434" height="333" fill="none" stroke="none" stroke-width="0"/>

<!-- Association Contient -->
<line x1="230" y1="171" x2="70" y2="171" stroke="#000000" stroke-width="1.5"/>
<text x="147" y="188.0" fill="#000000" font-family="Arial" font-size="12">0,N</text>
<line x1="70" y1="54" x2="70" y2="171" stroke="#000000" stroke-width="1.5"/>
<text x="76.0" y="116" fill="#000000" font-family="Arial" font-size="12">1,1</text>
<g id="association-Contient">
	<path d="M 96 143 a 14 14 90 0 1 14 14 V 170 h -80 V 157 a 14 14 90 0 1 14 -14" fill="#FFFFFF" stroke="#FFFFFF" stroke-width="0"/>
	<path d="M 110 170.0 v 15 a 14 14 90 0 1 -14 14 H 44 a 14 14 90 0 1 -14 -14 V 170.0 H 80" fill="#FFFFFF" stroke="#FFFFFF" stroke-width="0"/>
	<rect x="30" y="143" width="80" height="56" fill="none" rx="14" stroke="#000000" stroke-width="3"/>
	<line x1="30" y1="170" x2="110" y2="170" stroke="#000000" stroke-width="1.5"/>
	<text x="39" y="163.3" fill="#000000" font-family="Arial Black" font-size="13">Contient</text>
</g>

<!-- Association A pour valeur -->
<line x1="372" y1="288" x2="230" y2="288" stroke="#000000" stroke-width="1.5"/>
<text x="316" y="305.0" fill="#000000" font-family="Arial" font-size="12">1,1</text>
<line x1="70" y1="288" x2="230" y2="288" stroke="#000000" stroke-width="1.5"/>
<text x="115" y="305.0" fill="#000000" font-family="Arial" font-size="12">0,N</text>
<g id="association-A pour valeur">
	<path d="M 273 260 a 14 14 90 0 1 14 14 V 287 h -114 V 274 a 14 14 90 0 1 14 -14" fill="#FFFFFF" stroke="#FFFFFF" stroke-width="0"/>
	<path d="M 287 287.0 v 15 a 14 14 90 0 1 -14 14 H 187 a 14 14 90 0 1 -14 -14 V 287.0 H 114" fill="#FFFFFF" stroke="#FFFFFF" stroke-width="0"/>
	<rect x="173" y="260" width="114" height="56" fill="none" rx="14" stroke="#000000" stroke-width="3"/>
	<line x1="173" y1="287" x2="287" y2="287" stroke="#000000" stroke-width="1.5"/>
	<text x="182" y="280.3" fill="#000000" font-family="Arial Black" font-size="13">A pour valeur</text>
</g>

<!-- Association Est voté par -->
<line x1="372" y1="54" x2="372" y2="171" stroke="#000000" stroke-width="1.5"/>
<text x="378.0" y="107" fill="#000000" font-family="Arial" font-size="12">0,N</text>
<line x1="372" y1="288" x2="372" y2="171" stroke="#000000" stroke-width="1.5"/>
<text x="378.0" y="243" fill="#000000" font-family="Arial" font-size="12">1,1</text>
<g id="association-Est voté par">
	<path d="M 411 143 a 14 14 90 0 1 14 14 V 170 h -106 V 157 a 14 14 90 0 1 14 -14" fill="#FFFFFF" stroke="#FFFFFF" stroke-width="0"/>
	<path d="M 425 170.0 v 15 a 14 14 90 0 1 -14 14 H 333 a 14 14 90 0 1 -14 -14 V 170.0 H 106" fill="#FFFFFF" stroke="#FFFFFF" stroke-width="0"/>
	<rect x="319" y="143" width="106" height="56" fill="none" rx="14" stroke="#000000" stroke-width="3"/>
	<line x1="319" y1="170" x2="425" y2="170" stroke="#000000" stroke-width="1.5"/>
	<text x="328" y="163.3" fill="#000000" font-family="Arial Black" font-size="13">Est voté par</text>
</g>

<!-- Association Est composé de -->
<line x1="372" y1="54" x2="230" y2="54" stroke="#000000" stroke-width="1.5"/>
<text x="312" y="71.0" fill="#000000" font-family="Arial" font-size="12">1,1</text>
<line x1="230" y1="171" x2="230" y2="54" stroke="#000000" stroke-width="1.5"/>
<text x="236.0" y="99" fill="#000000" font-family="Arial" font-size="12">0,N</text>
<g id="association-Est composé de">
	<path d="M 282 26 a 14 14 90 0 1 14 14 V 53 h -132 V 40 a 14 14 90 0 1 14 -14" fill="#FFFFFF" stroke="#FFFFFF" stroke-width="0"/>
	<path d="M 296 53.0 v 15 a 14 14 90 0 1 -14 14 H 178 a 14 14 90 0 1 -14 -14 V 53.0 H 132" fill="#FFFFFF" stroke="#FFFFFF" stroke-width="0"/>
	<rect x="164" y="26" width="132" height="56" fill="none" rx="14" stroke="#000000" stroke-width="3"/>
	<line x1="164" y1="53" x2="296" y2="53" stroke="#000000" stroke-width="1.5"/>
	<text x="173" y="46.3" fill="#000000" font-family="Arial Black" font-size="13">Est composé de</text>
</g>

<!-- Entity Vote -->
<g id="entity-Vote">
	<g id="frame-Vote">
		<rect x="340" y="252" width="64" height="28" fill="#FFFFFF" stroke="#FFFFFF" stroke-width="0"/>
		<rect x="340" y="280.0" width="64" height="44" fill="#FFFFFF" stroke="#FFFFFF" stroke-width="0"/>
		<rect x="340" y="252" width="64" height="72" fill="none" stroke="#000000" stroke-width="3"/>
		<line x1="340" y1="280" x2="404" y2="280" stroke="#000000" stroke-width="1.5"/>
	</g>
	<text x="355" y="272.3" fill="#000000" font-family="Arial Black" font-size="13">Vote</text>
	<text x="348" y="296.2" fill="#000000" font-family="Arial" font-size="14">id_vote</text>
	<line x1="348" y1="299" x2="396" y2="299" stroke="#000000" stroke-width="1.2"/>
	<text x="348" y="314.2" fill="#000000" font-family="Arial" font-size="14">auteur</text>
</g>

<!-- Entity Commentaire -->
<g id="entity-Commentaire">
	<g id="frame-Commentaire">
		<rect x="9" y="9" width="122" height="28" fill="#FFFFFF" stroke="#FFFFFF" stroke-width="0"/>
		<rect x="9" y="37.0" width="122" height="62" fill="#FFFFFF" stroke="#FFFFFF" stroke-width="0"/>
		<rect x="9" y="9" width="122" height="90" fill="none" stroke="#000000" stroke-width="3"/>
		<line x1="9" y1="37" x2="131" y2="37" stroke="#000000" stroke-width="1.5"/>
	</g>
	<text x="22" y="29.3" fill="#000000" font-family="Arial Black" font-size="13">Commentaire</text>
	<text x="17" y="53.2" fill="#000000" font-family="Arial" font-size="14">id_commentaire</text>
	<line x1="17" y1="56" x2="122" y2="56" stroke="#000000" stroke-width="1.2"/>
	<text x="17" y="71.2" fill="#000000" font-family="Arial" font-size="14">commentaire</text>
	<text x="17" y="89.2" fill="#000000" font-family="Arial" font-size="14">auteur</text>
</g>

<!-- Entity Choix -->
<g id="entity-Choix">
	<g id="frame-Choix">
		<rect x="336" y="18" width="72" height="28" fill="#FFFFFF" stroke="#FFFFFF" stroke-width="0"/>
		<rect x="336" y="46.0" width="72" height="44" fill="#FFFFFF" stroke="#FFFFFF" stroke-width="0"/>
		<rect x="336" y="18" width="72" height="72" fill="none" stroke="#000000" stroke-width="3"/>
		<line x1="336" y1="46" x2="408" y2="46" stroke="#000000" stroke-width="1.5"/>
	</g>
	<text x="351" y="38.3" fill="#000000" font-family="Arial Black" font-size="13">Choix</text>
	<text x="344" y="62.2" fill="#000000" font-family="Arial" font-size="14">id_choix</text>
	<line x1="344" y1="65" x2="399" y2="65" stroke="#000000" stroke-width="1.2"/>
	<text x="344" y="80.2" fill="#000000" font-family="Arial" font-size="14">date</text>
</g>

<!-- Entity Option -->
<g id="entity-Option">
	<g id="frame-Option">
		<rect x="31" y="252" width="78" height="28" fill="#FFFFFF" stroke="#FFFFFF" stroke-width="0"/>
		<rect x="31" y="280.0" width="78" height="44" fill="#FFFFFF" stroke="#FFFFFF" stroke-width="0"/>
		<rect x="31" y="252" width="78" height="72" fill="none" stroke="#000000" stroke-width="3"/>
		<line x1="31" y1="280" x2="109" y2="280" stroke="#000000" stroke-width="1.5"/>
	</g>
	<text x="46" y="272.3" fill="#000000" font-family="Arial Black" font-size="13">Option</text>
	<text x="39" y="296.2" fill="#000000" font-family="Arial" font-size="14">id_option</text>
	<line x1="39" y1="299" x2="100" y2="299" stroke="#000000" stroke-width="1.2"/>
	<text x="39" y="314.2" fill="#000000" font-family="Arial" font-size="14">nom</text>
</g>

<!-- Entity Sondage -->
<g id="entity-Sondage">
	<g id="frame-Sondage">
		<rect x="174" y="108" width="112" height="28" fill="#FFFFFF" stroke="#FFFFFF" stroke-width="0"/>
		<rect x="174" y="136.0" width="112" height="98" fill="#FFFFFF" stroke="#FFFFFF" stroke-width="0"/>
		<rect x="174" y="108" width="112" height="126" fill="none" stroke="#000000" stroke-width="3"/>
		<line x1="174" y1="136" x2="286" y2="136" stroke="#000000" stroke-width="1.5"/>
	</g>
	<text x="199" y="128.3" fill="#000000" font-family="Arial Black" font-size="13">Sondage</text>
	<text x="182" y="152.2" fill="#000000" font-family="Arial" font-size="14">id_sondage</text>
	<line x1="182" y1="155" x2="259" y2="155" stroke="#000000" stroke-width="1.2"/>
	<text x="182" y="170.2" fill="#000000" font-family="Arial" font-size="14">nom</text>
	<text x="182" y="188.2" fill="#000000" font-family="Arial" font-size="14">description</text>
	<text x="182" y="206.2" fill="#000000" font-family="Arial" font-size="14">date_de_fin</text>
	<text x="182" y="224.2" fill="#000000" font-family="Arial" font-size="14">est_disponible</text>
</g>
</svg>